# xmcd CD database file
#
# Track frame offsets:
#	180
#	13033
#	26529
#	36700
#	49638
#	62274
#	76470
#	91870
#	103669
#	113043
#	128214
#	140348
#	155006
#	167378
#	180380
#	193151
#	206228
#	220237
#	234768
#	248472
#	261706
#	271235
#	283706
#	296955
#	310482
#	324870
#
# Disc length: 4458 seconds
#
# Revision: 0
# Processed by: cddbd v1.5.2PL0 Copyright (c) Steve Scherf et al.
# Submitted via: CDex 1.51
#
DISCID=7711681a
DTITLE=Country Trail - CD 4
DYEAR=1900
DGENRE=Country
TTITLE0=Hank Penny - Steel Guitar Stomp
TTITLE1=Ernest Phipps - If the light has gone
TTITLE2=Lefty Frizzel - My Baby압 just like Money
TTITLE3=Henry Thomas - Old Country Stomp
TTITLE4=Dickie Mc Bride - I don앖 get no Lovin
TTITLE5=Floyd County Ramblers - Auun앖 dinah압 Quitting Party
TTITLE6=Williamson Brothers - Gonna Die with my Hammer
TTITLE7=Kentucky Ramblers - Do not Wait
TTITLE8=Bob Wills - Littel Lisa Jane
TTITLE9=John Hurt - Frankie and Johnny
TTITLE10=The Delmore Brothers - Peach Street Boogie
TTITLE11=Jimmy Rodgers - Ninety Nine Year Blues
TTITLE12=Floyd Tillman - Slippin Around
TTITLE13=Woodie Brothers - Chased old Satan
TTITLE14=Elmer Christian - A rainy Sunday night
TTITLE15=Jimmy Revard - Holdin the Sack
TTITLE16=Patsy Montana - I want to be a Cowboy압 Sweetheart
TTITLE17=Jubileers - Boogie Woogie Johnsons
TTITLE18=Merle Travis - Merle압 Boogie Woogie
TTITLE19=Hank Penny - Big fat Papa
TTITLE20=Johnny Bond - Red River Valley
TTITLE21=Buster Martin - Herbie압 Steel Guitar Polka
TTITLE22=Littel Jimmy Dickens - Country Boy
TTITLE23=Dave and Howard - Serves覆 Fine
TTITLE24=Jimmy Davis - Rockin Blues
TTITLE25=Tex Williams - Drop Dead
EXTD=
EXTT0=
EXTT1=
EXTT2=
EXTT3=
EXTT4=
EXTT5=
EXTT6=
EXTT7=
EXTT8=
EXTT9=
EXTT10=
EXTT11=
EXTT12=
EXTT13=
EXTT14=
EXTT15=
EXTT16=
EXTT17=
EXTT18=
EXTT19=
EXTT20=
EXTT21=
EXTT22=
EXTT23=
EXTT24=
EXTT25=
PLAYORDER=
